<svg xmlns="http://www.w3.org/2000/svg" width="22" height="18" fill="none" viewBox="0 0 22 18"><path fill="#fff" stroke="#5243F4" d="m17.134.703-.008.004-.008.003a.658.658 0 0 0-.31.335 1.285 1.285 0 0 0-.085.3c-.025.144-.056.3-.094.471a.205.205 0 0 1-.034.055.916.916 0 0 1-.168.154c-.132.088-.351.166-.695.2-.93.084-1.987.025-3.176-.187-1.2-.23-2.241-.47-3.127-.722C8.472 1.044 7.4.912 6.22.91a7.545 7.545 0 0 0-3.371.724h-.002A4.323 4.323 0 0 0 1.27 2.92l-.001.002a3.637 3.637 0 0 0-.736 1.764 4.125 4.125 0 0 0 .16 1.774c.198.622.607 1.137 1.184 1.548l.007.004c.592.407 1.312.633 2.136.703.68.06 1.34-.068 1.975-.374.648-.307 1.143-.743 1.43-1.327a.678.678 0 0 0 .014-.551 1.33 1.33 0 0 0-.202-.34c-.092-.13-.187-.3-.28-.516a.548.548 0 0 1-.022-.403l.002-.007c.105-.355.33-.574.756-.678l.01-.002c.368-.097.764-.11 1.193-.03L7.265 16.5a.62.62 0 0 0-.02.151c0 .095.026.256.163.389l.083.08.11.036.06.02.076.024H12.146a.622.622 0 0 0 .393-.135.618.618 0 0 0 .216-.36l.005-.023.002-.022L13.99 5.978c.563.18 1.105.326 1.627.434h.002c.722.148 1.451.229 2.187.242.791.014 1.497-.148 2.088-.518.622-.38 1.033-.952 1.236-1.678l.003-.01.002-.01c.133-.553.162-1.078.064-1.563-.096-.48-.3-.903-.616-1.257a3.184 3.184 0 0 0-1.03-.77 3.067 3.067 0 0 0-1.203-.34c-.43-.031-.839.03-1.215.195Z"/></svg>